# xmcd CD database file
#
# Track frame offsets:
#	187
#	42685
#	79062
#	123295
#
# Disc length: 2120 seconds
#
# Revision: 0
# Processed by: cddbd v1.5.1PL0 Copyright (c) Steve Scherf et al.
# Submitted via: CDex 1.51
#
DISCID=2e084604
DTITLE=Sonny Rollins - Don't Stop The Carnival [CD2]
DYEAR=1978
DGENRE=Jazz
TTITLE0=Non-Cents
TTITLE1=A Child's Prayer
TTITLE2=President Hayes
TTITLE3=Sais
EXTD=YEAR: 1978
EXTT0=
EXTT1=
EXTT2=
EXTT3=
PLAYORDER=
